<svg width="512" height="512" viewBox="0 0 512 512" fill="none" xmlns="http://www.w3.org/2000/svg">
<g clip-path="url(#clip0_206_2)">
<rect width="512" height="512" rx="256" fill="white"/>
<path d="M256 0C114.615 0 0 114.615 0 256C0 397.385 114.615 512 256 512C397.385 512 512 397.385 512 256C512 114.615 397.385 0 256 0ZM256 90C293.02 90 323.031 125.468 323.031 169.219C323.031 212.97 293.02 248.438 256 248.438C218.98 248.438 188.969 212.97 188.969 169.219C188.969 125.468 218.98 90 256 90ZM369.46 402H142.54C131.162 402 121.938 392.776 121.938 381.398C121.938 328.159 181.959 285 256 285C330.041 285 390.062 328.159 390.062 381.398C390.062 392.776 380.839 402 369.46 402Z" fill="#F97316"/>
</g>
<defs>
<clipPath id="clip0_206_2">
<rect width="512" height="512" rx="256" fill="white"/>
</clipPath>
</defs>
</svg>
